Coordinates
version=1
nRows=11
nColumns=26
inDegrees=yes

Units are S.I. units (second, meters, Newtons, ...)
If the header above contains a line with 'inDegrees', this indicates whether rotational values are in degrees (yes) or radians (no).

endheader
time	pelvis_tilt	pelvis_list	pelvis_rotation	pelvis_tx	pelvis_ty	pelvis_tz	hip_flexion_r	hip_adduction_r	hip_rotation_r	knee_angle_r	knee_angle_r_beta	hip_flexion_l	hip_adduction_l	hip_rotation_l	knee_angle_l	knee_angle_l_beta	lumbar_extension	lumbar_bending	lumbar_rotation	ankle_angle_r	subtalar_angle_r	mtp_angle_r	ankle_angle_l	subtalar_angle_l	mtp_angle_l
      1.61000000	     -6.09804268	      5.26829668	      6.28464445	      0.31723721	      0.85999453	      0.20636063	     27.34568435	    -11.81873081	     -5.59700894	     72.41220194	      1.26383134	     16.17712327	     10.59296830	     18.50568927	     16.17818576	      0.28236261	     -2.68312691	     -7.78091810	     -9.30146526	     -8.13451061	    -19.14421294	      0.00000000	      6.20769560	    -12.78524904	      0.00000000
      1.62000000	     -6.10642703	      4.90199684	      6.48541829	      0.32650092	      0.86100702	      0.20601464	     28.83047731	    -11.69823412	     -6.05721054	     71.93141048	      1.25543995	     15.20058372	     10.11398996	     18.72150091	     15.61733958	      0.27257400	     -2.78609859	     -7.39919057	     -9.51626748	     -6.68863897	    -19.14994748	      0.00000000	      6.89204953	    -12.44015572	      0.00000000
      1.63000000	     -5.91106089	      4.53127865	      6.79923939	      0.33587480	      0.86217995	      0.20574284	     29.89271266	    -11.63685746	     -6.74159406	     71.04499507	      1.23996908	     14.01367392	      9.59177368	     18.94973608	     15.10141451	      0.26356940	     -3.14137012	     -7.01539916	     -9.76449588	     -5.39025919	    -19.07851786	      0.00000000	      7.73904581	    -11.80296121	      0.00000000
      1.64000000	     -5.85200241	      4.15830651	      7.01193785	      0.34524699	      0.86299254	      0.20552796	     31.07702654	    -11.51018861	     -7.25263381	     69.89034862	      1.21981670	     12.98076052	      9.05073648	     19.08724954	     14.54975094	      0.25394106	     -3.29387781	     -6.58981450	     -9.95910067	     -4.50307452	    -19.02824036	      0.00000000	      8.48987866	    -11.25054927	      0.00000000
      1.65000000	     -5.71783185	      3.79006209	      7.30129169	      0.35469917	      0.86378604	      0.20547847	     32.00721581	    -11.37096085	     -7.80595193	     68.37022789	      1.19328559	     11.87562093	      8.48202265	     19.18879826	     14.00927850	      0.24450804	     -3.54573560	     -6.25793602	    -10.17837584	     -3.78213486	    -18.94989071	      0.00000000	      9.31331858	    -10.58780723	      0.00000000
      1.66000000	     -5.48452698	      3.45010237	      7.60161140	      0.36427427	      0.86454157	      0.20534694	     32.68286809	    -11.26682105	     -8.36401452	     66.53656440	      1.16128212	     10.66821679	      7.91535791	     19.15462298	     13.48815053	      0.23541264	     -3.89893171	     -5.87197329	    -10.42060858	     -3.18513146	    -18.87214185	      0.00000000	     10.25223147	     -9.69282573	      0.00000000
      1.67000000	     -5.49039026	      3.12365128	      7.86398192	      0.37377220	      0.86476057	      0.20541953	     33.57086780	    -11.12403873	     -8.76479355	     64.48422637	      1.12546207	      9.73717741	      7.38860244	     19.27134135	     12.97250684	      0.22641296	     -3.96119597	     -5.59890454	    -10.56788145	     -2.73526119	    -18.77350224	      0.00000000	     10.98767051	     -9.11029600	      0.00000000
      1.68000000	     -5.31631177	      2.85360610	      8.20022275	      0.38342629	      0.86507134	      0.20538536	     34.06240323	    -11.07273155	     -9.22110627	     62.10549081	      1.08394530	      8.60596561	      6.89309675	     19.29568984	     12.48077351	      0.21783059	     -4.22945994	     -5.33154648	    -10.79761281	     -2.35943821	    -18.67723035	      0.00000000	     11.82826180	     -8.40822521	      0.00000000
      1.69000000	     -5.13619391	      2.62490172	      8.49286253	      0.39312542	      0.86516346	      0.20536850	     34.44045052	    -11.04618799	     -9.64696062	     59.49940979	      1.03846060	      7.49199029	      6.43384000	     19.23795976	     12.03145079	      0.20998843	     -4.51076793	     -5.09641363	    -11.01855849	     -2.02411997	    -18.58672928	      0.00000000	     12.68441990	     -7.59175021	      0.00000000
      1.70000000	     -5.07187429	      2.42259025	      8.81916992	      0.40280184	      0.86492357	      0.20534840	     34.82743124	    -11.04240667	     -9.99566048	     56.65292719	      0.98878011	      6.52850731	      6.03374251	     19.28280182	     11.63810535	      0.20312326	     -4.64784320	     -4.90731465	    -11.21833338	     -1.79602910	    -18.48501435	      0.00000000	     13.48489327	     -6.97478524	      0.00000000
      1.71000000	     -5.18388902	      2.25804476	      9.13758581	      0.41243276	      0.86425794	      0.20536192	     35.31949216	    -11.06032906	    -10.22110771	     53.62785601	      0.93598266	      5.79101769	      5.71684333	     19.38385235	     11.30294332	      0.19727358	     -4.57205967	     -4.78061089	    -11.37089077	     -1.55299669	    -18.32927450	      0.00000000	     14.13193421	     -6.60804921	      0.00000000
